<svg width="200" height="44" viewBox="0 0 200 44" fill="none" xmlns="http://www.w3.org/2000/svg">
<circle cx="58" cy="4" r="3" fill="#F4517D"/>
<circle cx="58" cy="4" r="2" fill="#D9D9D9"/>
<path d="M2.27557 35V8.81818H12.6051C14.5909 8.81818 16.2827 9.19744 17.6804 9.95597C19.0781 10.706 20.1435 11.75 20.8764 13.0881C21.6179 14.4176 21.9886 15.9517 21.9886 17.6903C21.9886 19.429 21.6136 20.9631 20.8636 22.2926C20.1136 23.6222 19.027 24.6577 17.6037 25.3991C16.1889 26.1406 14.4759 26.5114 12.4645 26.5114H5.88068V22.0753H11.5696C12.6349 22.0753 13.5128 21.892 14.2031 21.5256C14.902 21.1506 15.4219 20.6349 15.7628 19.9787C16.1122 19.3139 16.2869 18.5511 16.2869 17.6903C16.2869 16.821 16.1122 16.0625 15.7628 15.4148C15.4219 14.7585 14.902 14.2514 14.2031 13.8935C13.5043 13.527 12.6179 13.3438 11.544 13.3438H7.81108V35H2.27557ZM25.5842 35V8.81818H31.1197V30.4361H42.3441V35H25.5842ZM51.1907 35H45.2589L54.2972 8.81818H61.4308L70.4563 35H64.5245L57.9663 14.8011H57.7617L51.1907 35ZM50.82 24.7088H64.8313V29.0298H50.82V24.7088ZM69.4016 8.81818H75.6019L81.5721 20.0938H81.8278L87.7979 8.81818H93.9982L84.4485 25.7443V35H78.9514V25.7443L69.4016 8.81818ZM114.635 35H105.354V8.81818H114.712C117.345 8.81818 119.612 9.34233 121.513 10.3906C123.413 11.4304 124.875 12.9261 125.898 14.8778C126.929 16.8295 127.445 19.1648 127.445 21.8835C127.445 24.6108 126.929 26.9545 125.898 28.9148C124.875 30.875 123.405 32.3793 121.487 33.4276C119.578 34.4759 117.294 35 114.635 35ZM110.889 30.2571H114.405C116.041 30.2571 117.418 29.9673 118.534 29.3878C119.659 28.7997 120.503 27.892 121.065 26.6648C121.636 25.429 121.922 23.8352 121.922 21.8835C121.922 19.9489 121.636 18.3679 121.065 17.1406C120.503 15.9134 119.663 15.0099 118.547 14.4304C117.43 13.8509 116.054 13.5611 114.418 13.5611H110.889V30.2571ZM131.545 35V8.81818H149.187V13.3821H137.081V19.6207H148.279V24.1847H137.081V30.4361H149.238V35H131.545ZM167.791 16.348C167.689 15.3168 167.25 14.5156 166.474 13.9446C165.699 13.3736 164.646 13.0881 163.317 13.0881C162.413 13.0881 161.651 13.2159 161.028 13.4716C160.406 13.7187 159.929 14.0639 159.597 14.5071C159.273 14.9503 159.111 15.4531 159.111 16.0156C159.094 16.4844 159.192 16.8935 159.405 17.2429C159.626 17.5923 159.929 17.8949 160.312 18.1506C160.696 18.3977 161.139 18.6151 161.642 18.8026C162.145 18.9815 162.682 19.1349 163.253 19.2628L165.605 19.8253C166.747 20.081 167.795 20.4219 168.75 20.848C169.705 21.2741 170.531 21.7983 171.23 22.4205C171.929 23.0426 172.47 23.7756 172.854 24.6193C173.246 25.4631 173.446 26.4304 173.455 27.5213C173.446 29.1236 173.037 30.5128 172.227 31.6889C171.426 32.8565 170.267 33.7642 168.75 34.4119C167.241 35.0511 165.422 35.3707 163.291 35.3707C161.178 35.3707 159.337 35.0469 157.768 34.3991C156.209 33.7514 154.99 32.7926 154.112 31.5227C153.243 30.2443 152.787 28.6634 152.744 26.7798H158.101C158.161 27.6577 158.412 28.3906 158.855 28.9787C159.307 29.5582 159.908 29.9972 160.658 30.2955C161.416 30.5852 162.273 30.7301 163.227 30.7301C164.165 30.7301 164.979 30.5937 165.669 30.321C166.368 30.0483 166.909 29.669 167.293 29.1832C167.676 28.6974 167.868 28.1392 167.868 27.5085C167.868 26.9205 167.693 26.4261 167.344 26.0256C167.003 25.625 166.5 25.2841 165.835 25.0028C165.179 24.7216 164.374 24.4659 163.419 24.2358L160.568 23.5199C158.361 22.983 156.618 22.1435 155.339 21.0014C154.061 19.8594 153.426 18.321 153.435 16.3864C153.426 14.8011 153.848 13.4162 154.7 12.2315C155.561 11.0469 156.741 10.1222 158.241 9.45739C159.741 8.79261 161.446 8.46023 163.355 8.46023C165.298 8.46023 166.994 8.79261 168.443 9.45739C169.901 10.1222 171.034 11.0469 171.844 12.2315C172.653 13.4162 173.071 14.7884 173.097 16.348H167.791ZM177.178 35V8.81818H182.713V20.3622H183.059L192.48 8.81818H199.115L189.4 20.5412L199.23 35H192.608L185.436 24.2358L182.713 27.5597V35H177.178Z" fill="#F4517D"/>
</svg>
